<svg width="23" height="22" viewBox="0 0 23 22" fill="none" xmlns="http://www.w3.org/2000/svg">
<g clip-path="url(#clip0)">
<path d="M20.4865 3.06191C19.3683 1.84919 17.8341 1.18127 16.166 1.18127C14.9192 1.18127 13.7773 1.57546 12.7721 2.3528C12.2648 2.74518 11.8052 3.22523 11.4 3.78553C10.9949 3.22539 10.5352 2.74518 10.0278 2.3528C9.02267 1.57546 7.88081 1.18127 6.63397 1.18127C4.96592 1.18127 3.43151 1.84919 2.31338 3.06191C1.20859 4.26047 0.600006 5.89787 0.600006 7.67271C0.600006 9.49946 1.28077 11.1716 2.74234 12.9353C4.04982 14.5129 5.92898 16.1143 8.1051 17.9688C8.84816 18.6021 9.69042 19.3199 10.565 20.0846C10.796 20.2869 11.0925 20.3983 11.4 20.3983C11.7073 20.3983 12.004 20.2869 12.2347 20.0849C13.1093 19.3201 13.952 18.6019 14.6954 17.9683C16.8712 16.1142 18.7504 14.5129 20.0578 12.9351C21.5194 11.1716 22.2 9.49946 22.2 7.67255C22.2 5.89787 21.5914 4.26047 20.4865 3.06191Z" fill="red"/>
</g>
<defs>
<clipPath id="clip0">
<rect width="21.6" height="21.6" fill="red" transform="translate(0.600006)"/>
</clipPath>
</defs>
</svg>
