<svg width="29" height="30" viewBox="0 0 29 30" fill="none" xmlns="http://www.w3.org/2000/svg">
<g clip-path="url(#clip0)">
<path d="M14.5999 27.9977C14.1899 27.9977 13.7946 27.8492 13.4866 27.5793C12.3231 26.562 11.2014 25.606 10.2118 24.7627L10.2067 24.7583C7.30524 22.2857 4.7997 20.1504 3.05639 18.047C1.10764 15.6955 0.199951 13.4659 0.199951 11.0302C0.199951 8.66378 1.0114 6.48058 2.48466 4.88251C3.97551 3.26555 6.02116 2.375 8.24544 2.375C9.90789 2.375 11.4304 2.90058 12.7705 3.93703C13.4468 4.4602 14.0598 5.10048 14.5999 5.84733C15.1402 5.10048 15.753 4.4602 16.4296 3.93703C17.7697 2.90058 19.2922 2.375 20.9546 2.375C23.1787 2.375 25.2246 3.26555 26.7154 4.88251C28.1887 6.48058 28.9999 8.66378 28.9999 11.0302C28.9999 13.4659 28.0924 15.6955 26.1437 18.0467C24.4004 20.1504 21.8951 22.2855 18.994 24.7578C18.0026 25.6025 16.8791 26.56 15.7131 27.5798C15.4052 27.8492 15.0097 27.9977 14.5999 27.9977ZM8.24544 4.06206C6.49796 4.06206 4.89264 4.75947 3.7248 6.02597C2.5396 7.31159 1.88679 9.08873 1.88679 11.0302C1.88679 13.0787 2.64814 14.9108 4.35519 16.9705C6.00512 18.9615 8.45924 21.0528 11.3007 23.4744L11.306 23.4788C12.2994 24.3254 13.4255 25.2852 14.5975 26.31C15.7766 25.2832 16.9044 24.3219 17.8998 23.474C20.7411 21.0524 23.195 18.9615 24.8449 16.9705C26.5517 14.9108 27.3131 13.0787 27.3131 11.0302C27.3131 9.08873 26.6603 7.31159 25.475 6.02597C24.3074 4.75947 22.7019 4.06206 20.9546 4.06206C19.6745 4.06206 18.4992 4.46899 17.4614 5.27143C16.5366 5.98686 15.8924 6.89125 15.5146 7.52406C15.3204 7.84948 14.9785 8.04371 14.5999 8.04371C14.2213 8.04371 13.8794 7.84948 13.6852 7.52406C13.3077 6.89125 12.6635 5.98686 11.7384 5.27143C10.7007 4.46899 9.52535 4.06206 8.24544 4.06206Z" fill="#8A8A8A"/>
</g>
<defs>
<clipPath id="clip0">
<rect width="28.8" height="28.7999" fill="white" transform="translate(0.199951 0.800049)"/>
</clipPath>
</defs>
</svg>
