<svg width="20" height="20" viewBox="0 0 20 20" fill="none" xmlns="http://www.w3.org/2000/svg">
<g clip-path="url(#clip0)">
<path d="M7.75057 9.80413L14.9332 2.62115C15.131 2.42384 15.2398 2.16003 15.2398 1.87875C15.2398 1.5973 15.131 1.33365 14.9332 1.13603L14.3039 0.506961C14.1064 0.309029 13.8424 0.200073 13.5611 0.200073C13.2799 0.200073 13.0162 0.309029 12.8186 0.506961L4.26647 9.05892C4.06807 9.25717 3.95943 9.52206 3.96021 9.80366C3.95943 10.0865 4.06792 10.3511 4.26647 10.5495L12.8106 19.0932C13.0082 19.2911 13.2719 19.4001 13.5533 19.4001C13.8346 19.4001 14.0983 19.2911 14.2961 19.0932L14.9253 18.4641C15.3347 18.0547 15.3347 17.3881 14.9253 16.9788L7.75057 9.80413Z" fill="white"/>
</g>
<defs>
<clipPath id="clip0">
<rect width="19.2" height="19.2" fill="white" transform="translate(0 0.200073)"/>
</clipPath>
</defs>
</svg>
