<svg width="29" height="30" viewBox="0 0 29 30" fill="none" xmlns="http://www.w3.org/2000/svg">
<g clip-path="url(#clip0)">
<path d="M21.8 21.5H7.4C6.90292 21.5 6.5 21.097 6.5 20.6V12.5C6.5 8.03366 10.1336 4.40002 14.6 4.40002C19.0664 4.40002 22.7 8.03366 22.7 12.5V20.6C22.7 21.097 22.2971 21.5 21.8 21.5ZM8.3 19.7H20.9V12.5C20.9 9.02619 18.0738 6.20002 14.6 6.20002C11.1262 6.20002 8.3 9.02619 8.3 12.5V19.7Z" fill="black"/>
<path d="M21.8 25.1H7.40001C5.91124 25.1 4.70001 23.8887 4.70001 22.4C4.70001 20.9112 5.91124 19.7 7.40001 19.7H21.8C23.2888 19.7 24.5 20.9112 24.5 22.4C24.5 23.8887 23.2888 25.1 21.8 25.1ZM7.40001 21.5C6.90377 21.5 6.50001 21.9037 6.50001 22.4C6.50001 22.8962 6.90377 23.3 7.40001 23.3H21.8C22.2962 23.3 22.7 22.8962 22.7 22.4C22.7 21.9037 22.2962 21.5 21.8 21.5H7.40001Z" fill="black"/>
<path d="M14.6 6.20005C14.1029 6.20005 13.7 5.79707 13.7 5.30005V3.05005C13.7 1.8094 14.7094 0.800049 15.95 0.800049C17.1907 0.800049 18.2 1.8094 18.2 3.05005C18.2 3.54707 17.7971 3.95005 17.3 3.95005C16.8029 3.95005 16.4 3.54707 16.4 3.05005C16.4 2.80193 16.1981 2.60005 15.95 2.60005C15.7019 2.60005 15.5 2.80193 15.5 3.05005V5.30005C15.5 5.79707 15.0971 6.20005 14.6 6.20005Z" fill="black"/>
<path d="M14.6 29.6C12.6149 29.6 11 27.9851 11 26C11 25.1122 11.326 24.2596 11.9178 23.5993C12.0885 23.4088 12.3322 23.3 12.5879 23.3H16.612C16.8678 23.3 17.1115 23.4089 17.2822 23.5993C17.874 24.2596 18.2 25.1122 18.2 26C18.2 27.9851 16.5851 29.6 14.6 29.6ZM13.041 25.1C12.884 25.3714 12.8 25.6811 12.8 26C12.8 26.9926 13.6075 27.8 14.6 27.8C15.5925 27.8 16.4 26.9926 16.4 26C16.4 25.6811 16.316 25.3714 16.159 25.1H13.041Z" fill="black"/>
</g>
<defs>
<clipPath id="clip0">
<rect width="28.8" height="28.8" fill="white" transform="translate(0.200012 0.800049)"/>
</clipPath>
</defs>
</svg>
