<svg width="29" height="30" viewBox="0 0 29 30" fill="none" xmlns="http://www.w3.org/2000/svg">
<g clip-path="url(#clip0)">
<path d="M14.3948 14.6731C16.3007 14.6731 17.9508 13.9896 19.2995 12.6409C20.6478 11.2924 21.3315 9.6425 21.3315 7.73638C21.3315 5.83091 20.648 4.18076 19.2993 2.83186C17.9506 1.48362 16.3005 0.800049 14.3948 0.800049C12.4886 0.800049 10.8387 1.48362 9.49026 2.83208C8.1418 4.18054 7.45801 5.83069 7.45801 7.73638C7.45801 9.6425 8.1418 11.2927 9.49026 12.6411C10.8392 13.9894 12.4893 14.6731 14.3948 14.6731ZM10.6838 4.02541C11.7185 2.99072 12.9323 2.48777 14.3948 2.48777C15.8571 2.48777 17.071 2.99072 18.106 4.02541C19.1406 5.06033 19.6438 6.27432 19.6438 7.73638C19.6438 9.19888 19.1406 10.4126 18.106 11.4476C17.071 12.4825 15.8571 12.9854 14.3948 12.9854C12.9327 12.9854 11.7189 12.4823 10.6838 11.4476C9.6489 10.4129 9.14573 9.19888 9.14573 7.73638C9.14573 6.27432 9.6489 5.06033 10.6838 4.02541Z" fill="#8A8A8A"/>
<path d="M26.5323 22.9459C26.4934 22.3847 26.4147 21.7726 26.2989 21.1261C26.182 20.4749 26.0315 19.8592 25.8513 19.2965C25.665 18.7149 25.4121 18.1405 25.099 17.5901C24.7744 17.0188 24.393 16.5213 23.965 16.112C23.5174 15.6837 22.9694 15.3394 22.3357 15.0883C21.7042 14.8385 21.0044 14.7119 20.2558 14.7119C19.9618 14.7119 19.6774 14.8325 19.1283 15.19C18.7904 15.4104 18.3951 15.6653 17.9539 15.9472C17.5766 16.1876 17.0656 16.4128 16.4343 16.6167C15.8184 16.816 15.193 16.9171 14.5756 16.9171C13.9586 16.9171 13.3333 16.816 12.7169 16.6167C12.0863 16.413 11.575 16.1878 11.1984 15.9474C10.7614 15.6681 10.3659 15.4133 10.0229 15.1898C9.47422 14.8323 9.18989 14.7117 8.8959 14.7117C8.14707 14.7117 7.44746 14.8385 6.81619 15.0885C6.18293 15.3392 5.63472 15.6835 5.18669 16.1122C4.75867 16.5218 4.37722 17.019 4.05291 17.5901C3.74023 18.1405 3.48711 18.7146 3.30078 19.2967C3.12083 19.8594 2.97031 20.4749 2.85342 21.1261C2.7374 21.7717 2.65896 22.3841 2.62007 22.9466C2.58184 23.4966 2.5625 24.0689 2.5625 24.6473C2.5625 26.1506 3.04041 27.3677 3.98281 28.2653C4.91357 29.151 6.14492 29.6001 7.6428 29.6001H21.5102C23.0076 29.6001 24.239 29.151 25.1699 28.2653C26.1126 27.3684 26.5905 26.1509 26.5905 24.647C26.5903 24.0667 26.5707 23.4944 26.5323 22.9459ZM24.0063 27.0425C23.3913 27.6279 22.5748 27.9124 21.51 27.9124H7.6428C6.57778 27.9124 5.76128 27.6279 5.14648 27.0427C4.54334 26.4686 4.25022 25.6848 4.25022 24.6473C4.25022 24.1076 4.26802 23.5748 4.30361 23.0633C4.33833 22.5614 4.4093 22.0101 4.51455 21.4243C4.61848 20.8458 4.75076 20.3028 4.90808 19.8113C5.05903 19.34 5.26492 18.8733 5.52024 18.4237C5.76392 17.9953 6.04429 17.6277 6.35366 17.3315C6.64304 17.0544 7.00779 16.8276 7.43757 16.6576C7.83506 16.5002 8.28176 16.4141 8.7667 16.4011C8.82581 16.4326 8.93106 16.4926 9.10156 16.6037C9.44851 16.8298 9.84841 17.0878 10.2905 17.3701C10.7888 17.6879 11.4309 17.9748 12.1979 18.2225C12.9822 18.476 13.782 18.6048 14.5758 18.6048C15.3697 18.6048 16.1697 18.476 16.9535 18.2227C17.7212 17.9746 18.363 17.6879 18.862 17.3697C19.3145 17.0805 19.7031 16.8301 20.0501 16.6037C20.2206 16.4928 20.3259 16.4326 20.385 16.4011C20.8701 16.4141 21.3168 16.5002 21.7145 16.6576C22.1441 16.8276 22.5088 17.0546 22.7982 17.3315C23.1076 17.6274 23.388 17.995 23.6316 18.424C23.8872 18.8733 24.0933 19.3402 24.244 19.8111C24.4016 20.3033 24.5341 20.846 24.6378 21.4241C24.7428 22.011 24.814 22.5625 24.8487 23.0635V23.0639C24.8845 23.5735 24.9025 24.1061 24.9028 24.6473C24.9025 25.685 24.6094 26.4686 24.0063 27.0425Z" fill="#8A8A8A"/>
</g>
<defs>
<clipPath id="clip0">
<rect width="28.8" height="28.8001" fill="white" transform="translate(0.200012 0.800049)"/>
</clipPath>
</defs>
</svg>
