<svg width="13" height="17" viewBox="0 0 13 17" fill="none" xmlns="http://www.w3.org/2000/svg">
<path d="M6.7999 0C3.44499 0 0.715576 2.72941 0.715576 6.08429C0.715576 10.2478 6.16045 16.3601 6.39227 16.6183C6.61001 16.8608 6.99018 16.8603 7.20753 16.6183C7.43935 16.3601 12.8842 10.2478 12.8842 6.08429C12.8842 2.72941 10.1548 0 6.7999 0ZM6.7999 9.14547C5.11196 9.14547 3.73876 7.77223 3.73876 6.08429C3.73876 4.39635 5.11199 3.02315 6.7999 3.02315C8.48781 3.02315 9.86101 4.39638 9.86101 6.08432C9.86101 7.77226 8.48781 9.14547 6.7999 9.14547Z" fill="white"/>
</svg>
