<svg width="29" height="30" viewBox="0 0 29 30" fill="none" xmlns="http://www.w3.org/2000/svg">
<g clip-path="url(#clip0)">
<path d="M24.1625 28.699H5.03745C3.61073 28.699 2.44995 27.5383 2.44995 26.1115V12.4979C2.44995 12.0009 2.85287 11.5979 3.34995 11.5979C3.84703 11.5979 4.24995 12.0009 4.24995 12.4979V26.1115C4.24995 26.5458 4.6032 26.899 5.03745 26.899H24.1625C24.5967 26.899 24.95 26.5458 24.95 26.1115V12.4979C24.95 12.0009 25.3529 11.5979 25.85 11.5979C26.347 11.5979 26.75 12.0009 26.75 12.4979V26.1115C26.75 27.5383 25.5892 28.699 24.1625 28.699Z" fill="#8a8a8a"/>
<path d="M28.0999 15.6477C27.8696 15.6477 27.6393 15.5599 27.4636 15.3841L16.2704 4.19107C15.3494 3.26992 13.8506 3.26992 12.9294 4.19107L1.73635 15.3842C1.3849 15.7357 0.815031 15.7357 0.463581 15.3842C0.112075 15.0327 0.112075 14.4628 0.463581 14.1114L11.6567 2.91825C13.2796 1.29532 15.9204 1.29532 17.5432 2.91825L28.7363 14.1113C29.0878 14.4628 29.0878 15.0327 28.7363 15.3841C28.5606 15.5599 28.3303 15.6477 28.0999 15.6477Z" fill="#8a8a8a"/>
<path d="M18.2 28.6991H11C10.5029 28.6991 10.1 28.2962 10.1 27.7991V19.8116C10.1 18.2608 11.3617 16.9991 12.9125 16.9991H16.2875C17.8383 16.9991 19.1 18.2608 19.1 19.8116V27.7991C19.1 28.2962 18.6971 28.6991 18.2 28.6991ZM11.9 26.8991H17.3V19.8116C17.3 19.2534 16.8458 18.7991 16.2875 18.7991H12.9125C12.3542 18.7991 11.9 19.2534 11.9 19.8116V26.8991Z" fill="#8a8a8a"/>
</g>
<defs>
<clipPath id="clip0">
<rect width="28.8" height="28.8" fill="white" transform="translate(0.199951 0.800049)"/>
</clipPath>
</defs>
</svg>
