<svg width="29" height="30" viewBox="0 0 29 30" fill="none" xmlns="http://www.w3.org/2000/svg">
<g clip-path="url(#clip0)">
<path d="M14.6 29.6C6.65947 29.6 0.199951 23.1405 0.199951 15.2C0.199951 7.25957 6.65947 0.800049 14.6 0.800049C22.5404 0.800049 29 7.25957 29 15.2C29 23.1405 22.5404 29.6 14.6 29.6ZM14.6 2.60005C7.65198 2.60005 1.99995 8.25208 1.99995 15.2C1.99995 22.148 7.65198 27.8 14.6 27.8C21.5479 27.8 27.2 22.148 27.2 15.2C27.2 8.25208 21.5479 2.60005 14.6 2.60005Z" fill="black"/>
<path d="M20.8999 16.1H8.2999C7.8031 16.1 7.3999 15.6969 7.3999 15.2C7.3999 14.7032 7.8031 14.3 8.2999 14.3H20.8999C21.3967 14.3 21.7999 14.7032 21.7999 15.2C21.7999 15.6969 21.3967 16.1 20.8999 16.1Z" fill="black"/>
<path d="M14.6 22.4C14.1031 22.4 13.7 21.9968 13.7 21.5V8.9C13.7 8.4032 14.1031 8 14.6 8C15.0968 8 15.5 8.4032 15.5 8.9V21.5C15.5 21.9968 15.0968 22.4 14.6 22.4Z" fill="black"/>
</g>
<defs>
<clipPath id="clip0">
<rect width="28.8" height="28.8" fill="white" transform="translate(0.199951 0.800049)"/>
</clipPath>
</defs>
</svg>
